<svg xmlns="http://www.w3.org/2000/svg" enable-background="new 0 0 50 50" viewBox="0 0 50 50" id="cemetery"><path d="M47.35307 48.34998C47.02299 48.76001 46.52299 49 45.98295 49H4.02299c-.54004 0-1.04004-.23999-1.37988-.65002-.36011-.44995-.49023-1.06995-.3501-1.68994.01001-.04004.02002-.08008.03003-.13l2.21997-6.15002c.22998-.90991 1.1001-1.59998 2.03003-1.59998H43.4329c.93018 0 1.79004.69006 2.03003 1.59998l2.20996 6.15002c.02002.04993.03003.08997.04004.13C47.84306 47.28003 47.71293 47.90003 47.35307 48.34998zM31.13725 17.05994c.24902-.43115.24902-.9458 0-1.37646l-1.19141-2.06445-1.19141 2.06445c-.24902.43066-.24902.94482-.00098 1.37549C29.25053 17.92078 30.63822 17.92078 31.13725 17.05994zM25.77982 22.95105v13.82898h8.33105V22.95105c0-.25488-.20703-.46191-.46191-.46191h-7.40625C25.98783 22.48914 25.77982 22.69617 25.77982 22.95105z"></path><path d="M25.00297,1C16.31303,1,9.24296,8.06995,9.24296,16.75v20.03003h14.53687V22.95105
				c0-1.35742,1.10449-2.46191,2.46289-2.46191h2.70605v-0.89453c-0.80225-0.24463-1.4895-0.7782-1.92676-1.53564
				c-0.61035-1.05713-0.61035-2.31885,0-3.37549l2.05762-3.56445c0.35742-0.61914,1.375-0.61914,1.73242,0l2.05762,3.56445
				c0.61035,1.05713,0.60938,2.31934-0.00098,3.37646c-0.43555,0.75525-1.12036,1.2876-1.91992,1.53284v0.89636h2.7002
				c1.35742,0,2.46191,1.10449,2.46191,2.46191v13.82898h4.64209V16.75C40.75297,8.06995,33.69291,1,25.00297,1z"></path></svg>